<svg width="360" height="640" viewBox="0 0 360 640" fill="none" xmlns="http://www.w3.org/2000/svg">
<rect width="360" height="640" fill="#F3D083"/>
<path d="M0 -3.5C92.0902 57.4586 260.399 108.67 266.391 204.815C267.996 230.439 261.968 252.15 251.411 270.5H0V-3.5Z" fill="url(#paint0_linear_0_96)"/>
<path d="M198.019 261.179H0V8.69785C60.5612 62.2328 250.912 98.2557 256.797 176.9C259.828 217.488 230.368 244.202 198.019 261.179Z" fill="url(#paint1_linear_0_96)"/>
<path d="M233.186 236.213C223.128 246.235 210.787 254.474 198.019 261.179H0V232.503C21.3284 196.231 65.0909 171.336 115.559 171.336C167.703 171.336 212.713 197.943 233.186 236.213Z" fill="#652079"/>
<path d="M202 298.793H0V166.158C18.965 155.71 40.4535 149.793 63.2421 149.793C139.867 149.841 202 216.54 202 298.793Z" fill="#2B1E65"/>
<path d="M79.7141 196.552C99.5105 196.552 115.559 192.4 115.559 187.279C115.559 182.157 99.5105 178.005 79.7141 178.005C59.9177 178.005 43.8695 182.157 43.8695 187.279C43.8695 192.4 59.9177 196.552 79.7141 196.552Z" fill="#181446"/>
<path d="M224.947 202.722C237.022 202.722 246.81 199.96 246.81 196.552C246.81 193.144 237.022 190.382 224.947 190.382C212.872 190.382 203.083 193.144 203.083 196.552C203.083 199.96 212.872 202.722 224.947 202.722Z" fill="#641B76"/>
<path d="M233.507 193.413C233.507 193.413 231.652 196.266 230.332 198.62C229.013 201.01 229.262 203.007 233.364 199.976C237.466 196.944 238.785 195.981 238.357 194.84C237.894 193.556 237.359 192.914 237.359 192.914L233.507 193.413Z" fill="#A6496C"/>
<path d="M231.581 172.192C231.581 172.192 232.08 179.325 232.437 184.639C232.793 189.989 233.471 193.413 233.471 193.413C233.471 193.413 235.968 194.198 237.359 192.95C237.359 192.95 238.215 186.886 238.714 183.177C239.249 179.468 239.641 173.654 239.427 171.264C239.285 168.911 231.581 172.192 231.581 172.192Z" fill="#FF9F8C"/>
<path d="M219.418 190.988C219.418 190.988 215.888 193.913 214.853 195.482C213.855 197.051 216.102 196.98 219.846 195.482C223.27 194.127 223.877 193.627 224.091 193.199C224.34 192.771 223.698 190.596 223.698 190.596L219.418 190.988Z" fill="#A6496C"/>
<path d="M219.133 170.301C219.133 170.301 218.456 173.761 218.741 180.859C219.026 187.956 219.419 190.952 219.419 190.952C219.419 190.952 222.058 192.201 223.734 190.56C223.734 190.56 223.984 185.388 224.34 182.927C224.697 180.466 226.623 174.617 226.659 171.336C226.694 168.055 219.133 170.301 219.133 170.301Z" fill="#FF9F8C"/>
<path d="M232.758 97.5067C241.175 88.9112 247.131 97.9704 246.561 103.677C245.99 109.384 247.916 113.129 247.916 113.129C247.916 113.129 241.567 115.447 239.855 108.599C238.108 101.751 224.341 106.102 232.758 97.5067Z" fill="#8C289B"/>
<path d="M223.199 107.565C223.199 107.565 219.74 104.711 220.596 99.7537C221.452 94.7961 229.69 90.3022 235.932 98.2201C235.932 98.2201 240.604 97.6137 241.175 103.82C241.746 109.99 237.929 114.734 230.903 113.164C223.912 111.559 223.199 107.565 223.199 107.565Z" fill="#AA2EA9"/>
<path d="M216.137 123.828C217.6 121.653 219.882 118.478 221.38 116.945C223.484 114.805 226.409 115.09 226.409 115.09L231.01 114.163C231.01 114.163 233.293 114.413 235.647 114.627C238.714 114.948 241.46 116.731 242.994 119.406C245.134 123.115 247.951 127.93 247.951 127.93C245.669 130.783 241.318 132.923 241.318 132.923L240.319 131.176C240.355 133.423 241.032 136.49 241.853 139.415C242.423 141.519 243.065 143.516 243.565 145.121C246.275 153.467 246.204 169.552 246.204 169.552C241.71 173.333 223.734 178.184 213.32 169.196C213.855 163.275 219.633 150.792 222.45 144.301C225.268 137.774 224.055 137.31 222.486 133.922C220.952 130.534 222.093 128.108 222.093 128.108C221.772 128.75 221.344 129.392 220.845 129.999C220.595 129.642 217.671 126.04 216.137 123.828Z" fill="#E05E8E"/>
<path fill-rule="evenodd" clip-rule="evenodd" d="M243.03 119.37C242.637 118.728 242.209 118.157 241.71 117.622C241.674 118.906 241.781 121.225 242.53 123.935C242.875 125.357 243.348 126.628 243.816 127.887C244.17 128.84 244.521 129.785 244.813 130.783C245.919 129.999 247.096 129 247.987 127.894C247.987 127.894 245.17 123.079 243.03 119.37ZM243.597 145.141C243.589 145.112 243.58 145.081 243.565 145.05C243.458 145.335 243.422 145.442 243.422 145.442L243.636 145.228C243.616 145.208 243.607 145.177 243.597 145.141Z" fill="#DA437B"/>
<path d="M223.912 115.376C223.449 116.624 221.737 117.765 220.631 120.975C219.775 123.543 218.848 125.719 218.349 126.824C217.564 125.79 216.708 124.684 216.066 123.793C217.528 121.617 219.811 118.443 221.309 116.909C222.165 116.124 223.092 115.661 223.912 115.376Z" fill="#F08BB0"/>
<path d="M237.359 173.262C238.785 169.41 242.209 158.96 240.854 151.755C239.178 142.767 235.825 137.881 235.54 133.423C235.219 128.964 237.038 125.148 237.038 125.148C237.038 125.148 239.891 130.534 241.389 132.888C241.353 132.923 241.318 132.923 241.318 132.923L240.319 131.176C240.355 133.423 241.032 136.49 241.853 139.415C242.423 141.519 243.065 143.516 243.565 145.121C246.275 153.467 246.204 169.552 246.204 169.552C244.635 170.836 241.353 172.299 237.359 173.262Z" fill="#DA437B"/>
<path d="M226.088 136.312C226.088 136.312 229.69 137.453 231.723 136.169C233.756 134.849 232.793 138.238 230.725 138.63C228.692 138.987 226.837 137.417 226.088 136.312Z" fill="#DA437B"/>
<path d="M220.845 129.892C218.991 132.317 216.137 134.493 213.284 134.207C209.682 133.886 205.972 126.789 203.654 122.009C201.336 117.23 202.691 114.27 204.795 116.124C206.9 117.979 214.853 125.647 214.853 125.647L216.173 123.757C217.671 126.004 220.631 129.678 220.845 129.892Z" fill="#FF9F8C"/>
<path d="M216.137 123.828C216.779 124.72 217.635 125.861 218.456 126.931C218.313 127.466 217.778 128.429 217.207 127.894C216.637 127.395 214.818 125.719 214.818 125.719L216.137 123.828Z" fill="#FFBBAE"/>
<path d="M213.355 134.243C213.32 134.243 213.284 134.243 213.248 134.243C209.646 133.922 205.937 126.824 203.618 122.045C201.3 117.266 202.655 114.306 204.76 116.16C205.366 116.695 206.436 117.658 207.649 118.835C208.719 121.225 210.573 125.469 212.856 130.284C213.89 132.424 213.855 133.601 213.355 134.243Z" fill="#FFBBAE"/>
<path d="M247.952 127.93C247.952 127.93 249.842 131.39 249.842 133.993C249.842 137.417 246.882 141.876 243.351 144.372C239.784 146.869 234.648 149.651 233.685 146.583L242.851 135.313L241.318 132.923C243.529 131.782 246.097 130.106 247.952 127.93Z" fill="#FF9F8C"/>
<path d="M244.777 130.819C245.919 129.999 247.024 129.036 247.951 127.93C247.951 127.93 249.842 131.39 249.842 133.993C249.842 137.203 247.274 141.305 244.028 143.837C244.599 142.161 245.348 139.379 245.455 136.169C245.491 134.065 245.205 132.353 244.777 130.819Z" fill="#FB8973"/>
<path d="M225.803 113.985L226.088 115.34C226.088 115.34 226.98 118.336 228.87 118.621C230.76 118.871 233.899 114.484 233.899 114.484C233.899 114.484 233.685 112.594 233.507 111.31C233.364 110.204 225.803 113.985 225.803 113.985Z" fill="#FB8973"/>
<path d="M233.471 99.3257C233.471 99.3257 227.943 102.25 222.878 102.393C223.128 104.034 221.559 108.171 223.449 112.023C225.339 115.875 232.08 117.016 235.005 110.026C240.212 110.275 239.962 104.141 235.04 105.567C235.04 105.567 233.257 103.32 233.471 99.3257Z" fill="#FF9F8C"/>
<path d="M67.9085 76.321C67.9085 76.321 62.5229 79.0316 57.4583 84.4886C52.4294 89.9098 48.6131 95.9731 47.7928 109.455C46.9724 122.937 54.8547 137.096 54.8547 137.096L55.4967 151.363C55.4967 151.363 63.0936 160.743 82.7813 157.426C102.469 154.073 105.037 146.869 105.037 146.869C105.037 146.869 104.466 140.128 104.431 138.202C106.713 133.672 110.066 123.579 107.034 108.956C105.822 103.178 104.11 97.2927 102.433 92.2995C99.7584 84.1676 92.9462 78.14 84.5646 76.428L67.9085 76.321Z" fill="#573E88"/>
<path d="M67.6945 76.428C73.5081 78.7106 74.2214 88.4119 74.3641 102.143C74.3641 102.143 64.7699 91.6931 62.5942 86.8425C59.2416 86.5572 55.1757 91.4078 54.3197 94.8674C53.4637 98.3271 45.2961 105.246 58.885 100.859C70.9758 96.9361 67.8372 118.407 76.5041 124.756C82.924 129.464 96.1918 122.366 96.5128 127.359C96.7982 131.889 74.9348 137.952 74.0074 139.629C71.2611 144.622 72.7235 152.647 75.5768 158.104C61.2033 158.425 55.4967 151.363 55.4967 151.363L54.8547 137.096C54.8547 137.096 46.9724 122.937 47.7928 109.455C48.6131 95.9731 52.4294 89.9098 57.4583 84.4886C61.9166 79.6736 66.6602 76.963 67.6945 76.428Z" fill="#482F7B"/>
<path d="M104.573 137.845C104.502 137.845 104.395 137.845 104.324 137.81C104.324 137.81 99.2949 111.773 98.6529 109.312C98.0109 106.851 96.3702 95.9374 96.2989 94.3681C96.2632 93.1198 101.328 96.1514 105.964 104.533C106.321 105.995 106.678 107.458 106.963 108.92C109.995 123.186 106.856 133.137 104.573 137.845Z" fill="#3E276C"/>
<path d="M76.8251 86.2719C76.8251 86.2719 80.2847 92.5491 81.212 93.8331C83.78 95.0458 86.3836 92.6918 86.3836 92.6918L86.562 85.8439L80.677 82.1703L76.8251 86.2719Z" fill="#E2D6FB"/>
<path d="M81.212 93.8331L81.7114 114.127L85.4563 119.227L91.8406 118.157L90.1999 104.069L86.027 91.9785L81.212 93.8331Z" fill="#C7B9E3"/>
<path d="M89.2012 118.407C89.2012 118.407 77.9664 95.1528 77.0034 92.9771C78.6797 88.4119 81.9253 83.2759 89.2726 91.5861C87.8816 85.2732 84.3506 81.3856 80.891 81.3499C77.4314 81.3143 70.4052 87.7342 70.4052 87.7342L85.171 119.156L89.2012 118.407Z" fill="url(#paint2_linear_0_96)"/>
<path d="M67.0526 76.7847C67.0526 76.7847 63.4503 83.5969 64.342 90.7302C64.556 92.5848 72.6522 98.6481 72.6522 98.6481C72.6522 98.6481 73.5795 107.101 74.5782 110.418C75.2558 112.701 86.348 119.869 86.348 119.869L69.9772 86.1292L67.8729 76.321L67.0526 76.7847Z" fill="#3A2A5A"/>
<path d="M87.3823 81.0289C87.3823 81.0289 93.6952 91.3721 94.6939 93.7261C94.0162 98.9334 92.7323 105.139 92.5183 106.281C93.8022 108.956 94.1589 109.705 94.1589 109.705C94.1589 109.705 93.1959 116.267 92.6966 118.3C92.1973 120.333 90.9489 119.263 90.9489 119.263L87.8817 87.0209L87.3823 81.0289Z" fill="#3A2A5A"/>
<path d="M55.7106 89.4462C55.7106 89.4462 61.3816 90.6232 63.6285 97.9704C65.7328 104.783 67.2308 118.478 67.2308 118.478C67.2308 118.478 70.1911 118.086 71.9031 118.3C73.6151 118.514 93.0532 116.802 96.1918 116.303C100.828 118.835 100.757 127.003 99.1878 128.429C99.1878 128.429 87.9529 132.852 77.788 134.885C67.6232 136.918 56.21 138.202 53.6063 137.025C51.0027 135.848 47.6857 128.108 47.5787 116.588C47.5074 105.032 47.4361 90.8015 55.7106 89.4462Z" fill="#503882"/>
<path d="M67.1952 118.478C66.9455 118.585 62.9152 120.262 61.9879 118.443C61.3459 117.194 64.0566 112.344 65.9825 109.17C66.7672 114.163 67.2309 118.478 67.1952 118.478Z" fill="#3E276C"/>
<path d="M78.6084 134.671C78.3231 134.742 78.0378 134.778 77.7525 134.849C67.5876 136.882 56.1744 138.166 53.5708 136.989C50.9671 135.812 47.6502 128.073 47.5432 116.552C47.4362 105.032 47.4005 90.7658 55.6751 89.4105C55.6751 89.4105 56.1744 89.5175 56.9234 89.8385C55.5324 92.2638 52.9288 98.5767 54.3554 109.669C56.2457 124.363 60.169 130.605 68.4792 132.388C73.2585 133.423 76.6111 134.207 78.6084 134.671Z" fill="#472F78"/>
<path d="M96.1204 116.267H96.1561C100.793 118.799 100.721 126.967 99.1521 128.394C99.1521 128.394 98.9737 128.465 98.6527 128.608C97.4044 128.144 96.1561 126.575 94.8365 122.937C93.1245 118.157 95.3001 116.659 96.1204 116.267Z" fill="#231F2D"/>
<path d="M115.773 111.417L106.892 109.455L106.678 129.143C109.781 130.213 112.812 130.141 115.737 129.143V111.417H115.773Z" fill="#271613"/>
<path d="M94.4442 118.193C94.4442 118.193 98.7954 116.053 105.073 113.271C109.567 110.24 118.519 113.878 118.804 119.869C119.09 125.861 111.6 125.005 107.605 123.293C103.432 124.791 97.0121 127.11 97.0121 127.11C97.0121 127.11 93.3385 123.079 94.4442 118.193Z" fill="#FF9F8C"/>
<path d="M60.7752 69.0808C60.7752 69.0808 58.5996 68.7598 56.3526 65.1931C54.07 61.6265 53.963 58.3452 53.7847 56.4906C53.7847 56.4906 57.5296 53.4946 58.8493 46.9677C60.1689 40.4408 63.9852 32.3089 78.6797 32.0236C92.0902 31.7739 93.4812 41.1898 93.4812 41.1898C93.4812 41.1898 103.432 43.1514 95.0861 58.9872C86.7046 74.823 60.7752 69.0808 60.7752 69.0808Z" fill="#53469C"/>
<path d="M80.2847 84.4529C80.2847 84.4529 84.8144 83.6682 88.2026 89.2322C88.2026 89.2322 90.6636 82.3486 85.1354 77.712L79.7498 81.8136L80.2847 84.4529Z" fill="#6F4BB9"/>
<path d="M68.6219 75.8573C68.6219 75.8573 67.6232 72.4334 67.3022 71.1137C56.317 73.0397 59.099 61.9475 63.4859 61.6622C67.9085 61.3769 68.2295 67.4045 70.0128 60.6279C71.7961 53.8513 71.7248 54.2793 71.7248 54.2793C71.7248 54.2793 81.3904 51.3903 84.4577 49.3217C87.525 47.253 89.9859 46.1474 89.9859 46.1474C89.9859 46.1474 94.0162 50.57 94.9079 53.138C95.7638 55.7416 97.5115 66.6198 93.4099 72.2194C89.3083 77.7833 84.1367 78.461 84.1367 78.461L80.1064 84.4886L68.6219 75.8573Z" fill="#FF9F8C"/>
<path d="M75.5767 81.1003C75.327 79.2813 75.434 77.712 75.434 77.712C80.5343 79.2813 84.1009 78.4253 84.1009 78.4253L80.0707 84.4529L75.5767 81.1003Z" fill="#E7755E"/>
<path fill-rule="evenodd" clip-rule="evenodd" d="M89.9502 46.1117C89.9502 46.1117 88.3096 46.8607 86.0626 48.2517C90.0892 46.0523 93.1528 50.1127 93.5173 50.5959C93.537 50.622 93.5489 50.6377 93.5525 50.6413C92.0545 48.3944 89.9502 46.1117 89.9502 46.1117ZM80.677 51.1763C76.3257 53.566 71.5465 56.2053 71.0115 56.8473C70.9978 56.8609 70.9894 56.8745 70.9822 56.8861C70.9706 56.905 70.9622 56.9186 70.9401 56.9186C71.7248 54.0296 71.6891 54.2436 71.6891 54.2436C71.6891 54.2436 76.7537 52.7813 80.677 51.1763ZM64.4132 61.6979C65.6882 61.8884 66.5537 62.6148 67.2176 63.172C68.1694 63.9709 68.7068 64.4219 69.4421 62.4469C69.1925 63.4455 68.9428 64.3372 68.6575 65.0148C68.1351 66.264 67.3524 65.228 66.3462 63.8962C65.7723 63.1366 65.1257 62.2808 64.4132 61.6979Z" fill="#E7755E"/>
<path d="M68.4078 75.1084L80.2847 84.4886C80.2847 84.4886 75.8977 85.9152 75.2558 93.0128C75.2201 92.9771 62.5942 83.0263 68.4078 75.1084Z" fill="#6F4BB9"/>
<path d="M103.075 90.4092C103.147 90.3735 152.473 74.7517 152.473 74.7517L152.758 130.997C152.758 130.997 102.398 108.956 102.362 108.92C101.149 106.423 100.472 103.499 100.472 100.36C100.436 96.6151 101.435 93.1555 103.075 90.4092Z" fill="url(#paint3_linear_0_96)"/>
<path d="M157.609 131.711C169.605 131.711 179.33 118.776 179.33 102.821C179.33 86.8657 169.605 73.9314 157.609 73.9314C145.613 73.9314 135.888 86.8657 135.888 102.821C135.888 118.776 145.613 131.711 157.609 131.711Z" fill="#E7755E"/>
<path d="M138.314 89.5175C138.991 89.4818 139.705 89.4462 140.418 89.4462C152.402 89.4462 162.139 95.3311 162.139 102.571C162.139 109.812 152.402 115.697 140.418 115.697C139.633 115.697 138.884 115.661 138.135 115.625C136.709 111.773 135.888 107.422 135.888 102.821C135.888 98.0417 136.744 93.5121 138.314 89.5175Z" fill="#AF4C39"/>
<path d="M165.67 129.678C163.173 130.997 160.462 131.746 157.609 131.746C145.625 131.746 135.888 118.799 135.888 102.857C135.888 86.9139 145.625 73.967 157.609 73.967C159.999 73.967 162.317 74.502 164.457 75.4293C158.572 81.6709 154.827 91.2295 154.827 101.929C154.827 113.378 159.107 123.472 165.67 129.678Z" fill="url(#paint4_linear_0_96)"/>
<path fill-rule="evenodd" clip-rule="evenodd" d="M168.987 77.5337C165.777 75.0014 161.782 73.432 157.68 73.3964H157.538C150.119 73.4677 143.735 78.461 140.026 84.7382C131.751 98.7551 134.283 120.262 147.515 129.143C152.152 132.246 158.18 133.137 163.351 131.318C174.372 127.431 179.829 114.841 179.9 103.035C179.936 93.3695 176.405 83.3473 168.987 77.5337ZM146.909 78.3896C149.941 76 153.721 74.5377 157.538 74.502H157.609C161.461 74.5377 165.206 76 168.238 78.3896C175.371 84.0249 178.83 93.7975 178.723 103.213C178.616 113.949 173.98 125.005 164.778 129.464C156.575 133.458 147.729 129.499 142.843 123.151C138.492 117.48 136.495 110.311 136.423 103.213C136.352 93.7975 139.705 84.0606 146.909 78.3896Z" fill="#FFC4C4"/>
<path d="M185.857 77.712L181.398 82.1346L176.619 80.5296L163.958 87.2349L166.347 89.9455L175.264 85.0236L180.899 87.4489L187.569 81.2429L185.857 77.712Z" fill="#E6D77C"/>
<path d="M105.465 31.5242L108.889 32.0592L110.672 26.7806L115.166 27.7436L118.697 18.7557L115.452 17.7571L113.24 23.6777L108.176 23.7133L105.465 31.5242Z" fill="#EA6C6C"/>
<path d="M192.954 103.855L183.324 103.285L181.505 100.253H168.345L168.416 103.249L178.474 104.462L179.9 107.208L193.204 107.886L192.954 103.855Z" fill="#E6D77C"/>
<path d="M185.678 128.679L178.438 124.827L178.652 120.583L164.707 113.557L162.638 115.839L174.871 123.222L174.55 127.395L183.895 132.745L185.678 128.679Z" fill="#E6D77C"/>
<path d="M124.939 51.9253L124.261 43.5794L131.073 47.5027L124.939 51.9253Z" fill="#F76868"/>
<path d="M44.4045 39.3351L37.9132 34.4489L45.1535 32.0592L44.4045 39.3351Z" fill="#F76868"/>
<path d="M81.5331 17.7571L80.9268 10.0888L87.1683 13.6911L81.5331 17.7571Z" fill="#F76868"/>
<path d="M27.891 65.8351L34.5606 62.2329L39.6965 64.6225L44.9038 61.3769L47.9354 64.4085L40.1245 69.7941L34.5962 66.6555L28.1407 70.3647L27.891 65.8351Z" fill="#D95454"/>
<defs>
<linearGradient id="paint0_linear_0_96" x1="-45.2744" y1="99.8785" x2="47.9433" y2="315.172" gradientUnits="userSpaceOnUse">
<stop stop-color="#B35464" stop-opacity="0.24"/>
<stop offset="1" stop-color="#781D83" stop-opacity="0.24"/>
</linearGradient>
<linearGradient id="paint1_linear_0_96" x1="3.92649" y1="245.204" x2="228.42" y2="245.204" gradientUnits="userSpaceOnUse">
<stop stop-color="#B35464"/>
<stop offset="1" stop-color="#781D83"/>
</linearGradient>
<linearGradient id="paint2_linear_0_96" x1="73.248" y1="97.1084" x2="90.6493" y2="107.178" gradientUnits="userSpaceOnUse">
<stop stop-color="#200D47" stop-opacity="0.33"/>
<stop offset="1" stop-color="#5E3E9E" stop-opacity="0.33"/>
</linearGradient>
<linearGradient id="paint3_linear_0_96" x1="107.883" y1="130.928" x2="149.867" y2="126.686" gradientUnits="userSpaceOnUse">
<stop stop-color="#E7755E"/>
<stop offset="1" stop-color="#FFAF9F"/>
</linearGradient>
<linearGradient id="paint4_linear_0_96" x1="148.415" y1="72.106" x2="123.709" y2="98.4743" gradientUnits="userSpaceOnUse">
<stop stop-color="#853A2A" stop-opacity="0.29"/>
<stop offset="1" stop-color="#4F160A" stop-opacity="0.29"/>
</linearGradient>
</defs>
</svg>
