<svg  viewBox="0 0 800 800" fill="none" xmlns="http://www.w3.org/2000/svg">
<rect x="-1" width="801" height="800" fill="#F3D083"/>
<path d="M-1 57.9C257.2 223 729.1 361.7 745.9 622.1C750.4 691.5 733.5 750.3 703.9 800H-1V57.9Z" fill="url(#paint0_linear_0_3)"/>
<path d="M554.2 800H-1V92.1C168.8 242.2 702.5 343.2 719 563.7C727.5 677.5 644.9 752.4 554.2 800Z" fill="url(#paint1_linear_0_3)"/>
<path d="M652.8 730C624.6 758.1 590 781.2 554.2 800H-1V719.6C58.8 617.9 181.5 548.1 323 548.1C469.2 548.1 595.4 622.7 652.8 730Z" fill="#652079"/>
<path d="M527.3 800H-1V522C48.6 500.1 104.8 487.7 164.4 487.7C364.8 487.8 527.3 627.6 527.3 800Z" fill="#2B1E65"/>
<path d="M222.5 618.8C278.005 618.8 323 607.159 323 592.8C323 578.441 278.005 566.8 222.5 566.8C166.995 566.8 122 578.441 122 592.8C122 607.159 166.995 618.8 222.5 618.8Z" fill="#181446"/>
<path d="M629.7 636.1C663.555 636.1 691 628.355 691 618.8C691 609.245 663.555 601.5 629.7 601.5C595.845 601.5 568.4 609.245 568.4 618.8C568.4 628.355 595.845 636.1 629.7 636.1Z" fill="#641B76"/>
<path d="M653.7 610C653.7 610 648.5 618 644.8 624.6C641.1 631.3 641.8 636.9 653.3 628.4C664.8 619.9 668.5 617.2 667.3 614C666 610.4 664.5 608.6 664.5 608.6L653.7 610Z" fill="#A6496C"/>
<path d="M648.3 550.5C648.3 550.5 649.7 570.5 650.7 585.4C651.7 600.4 653.6 610 653.6 610C653.6 610 660.6 612.2 664.5 608.7C664.5 608.7 666.9 591.7 668.3 581.3C669.8 570.9 670.9 554.6 670.3 547.9C669.9 541.3 648.3 550.5 648.3 550.5Z" fill="#FF9F8C"/>
<path d="M614.2 603.2C614.2 603.2 604.3 611.4 601.4 615.8C598.6 620.2 604.9 620 615.4 615.8C625 612 626.7 610.6 627.3 609.4C628 608.2 626.2 602.1 626.2 602.1L614.2 603.2Z" fill="#A6496C"/>
<path d="M613.4 545.2C613.4 545.2 611.5 554.9 612.3 574.8C613.1 594.7 614.2 603.1 614.2 603.1C614.2 603.1 621.6 606.6 626.3 602C626.3 602 627 587.5 628 580.6C629 573.7 634.4 557.3 634.5 548.1C634.6 538.9 613.4 545.2 613.4 545.2Z" fill="#FF9F8C"/>
<path d="M651.6 341.1C675.2 317 691.9 342.4 690.3 358.4C688.7 374.4 694.1 384.9 694.1 384.9C694.1 384.9 676.3 391.4 671.5 372.2C666.6 353 628 365.2 651.6 341.1Z" fill="#8C289B"/>
<path d="M624.8 369.3C624.8 369.3 615.1 361.3 617.5 347.4C619.9 333.5 643 320.9 660.5 343.1C660.5 343.1 673.6 341.4 675.2 358.8C676.8 376.1 666.1 389.4 646.4 385C626.8 380.5 624.8 369.3 624.8 369.3Z" fill="#AA2EA9"/>
<path d="M605 414.9C609.1 408.8 615.5 399.9 619.7 395.6C625.6 389.6 633.8 390.4 633.8 390.4L646.7 387.8C646.7 387.8 653.1 388.5 659.7 389.1C668.3 390 676 395 680.3 402.5C686.3 412.9 694.2 426.4 694.2 426.4C687.8 434.4 675.6 440.4 675.6 440.4L672.8 435.5C672.9 441.8 674.8 450.4 677.1 458.6C678.7 464.5 680.5 470.1 681.9 474.6C689.5 498 689.3 543.1 689.3 543.1C676.7 553.7 626.3 567.3 597.1 542.1C598.6 525.5 614.8 490.5 622.7 472.3C630.6 454 627.2 452.7 622.8 443.2C618.5 433.7 621.7 426.9 621.7 426.9C620.8 428.7 619.6 430.5 618.2 432.2C617.5 431.2 609.3 421.1 605 414.9Z" fill="#E05E8E"/>
<path fill-rule="evenodd" clip-rule="evenodd" d="M680.4 402.4C679.3 400.6 678.1 399 676.7 397.5C676.6 401.1 676.9 407.6 679 415.2C679.968 419.186 681.293 422.75 682.605 426.28C683.597 428.95 684.582 431.601 685.4 434.4C688.5 432.2 691.8 429.4 694.3 426.3C694.3 426.3 686.4 412.8 680.4 402.4ZM681.991 474.655C681.968 474.575 681.944 474.488 681.9 474.4C681.6 475.2 681.5 475.5 681.5 475.5L682.1 474.9C682.044 474.844 682.019 474.756 681.991 474.655Z" fill="#DA437B"/>
<path d="M626.8 391.2C625.5 394.7 620.7 397.9 617.6 406.9C615.2 414.1 612.6 420.2 611.2 423.3C609 420.4 606.6 417.3 604.8 414.8C608.9 408.7 615.3 399.8 619.5 395.5C621.9 393.3 624.5 392 626.8 391.2Z" fill="#F08BB0"/>
<path d="M664.5 553.5C668.5 542.7 678.1 513.4 674.3 493.2C669.6 468 660.2 454.3 659.4 441.8C658.5 429.3 663.6 418.6 663.6 418.6C663.6 418.6 671.6 433.7 675.8 440.3C675.7 440.4 675.6 440.4 675.6 440.4L672.8 435.5C672.9 441.8 674.8 450.4 677.1 458.6C678.7 464.5 680.5 470.1 681.9 474.6C689.5 498 689.3 543.1 689.3 543.1C684.9 546.7 675.7 550.8 664.5 553.5Z" fill="#DA437B"/>
<path d="M632.9 449.9C632.9 449.9 643 453.1 648.7 449.5C654.4 445.8 651.7 455.3 645.9 456.4C640.2 457.4 635 453 632.9 449.9Z" fill="#DA437B"/>
<path d="M618.2 431.9C613 438.7 605 444.8 597 444C586.9 443.1 576.5 423.2 570 409.8C563.5 396.4 567.3 388.1 573.2 393.3C579.1 398.5 601.4 420 601.4 420L605.1 414.7C609.3 421 617.6 431.3 618.2 431.9Z" fill="#FF9F8C"/>
<path d="M605 414.9C606.8 417.4 609.2 420.6 611.5 423.6C611.1 425.1 609.6 427.8 608 426.3C606.4 424.9 601.3 420.2 601.3 420.2L605 414.9Z" fill="#FFBBAE"/>
<path d="M597.2 444.1C597.1 444.1 597 444.1 596.9 444.1C586.8 443.2 576.4 423.3 569.9 409.9C563.4 396.5 567.2 388.2 573.1 393.4C574.8 394.9 577.8 397.6 581.2 400.9C584.2 407.6 589.4 419.5 595.8 433C598.7 439 598.6 442.3 597.2 444.1Z" fill="#FFBBAE"/>
<path d="M694.2 426.4C694.2 426.4 699.5 436.1 699.5 443.4C699.5 453 691.2 465.5 681.3 472.5C671.3 479.5 656.9 487.3 654.2 478.7L679.9 447.1L675.6 440.4C681.8 437.2 689 432.5 694.2 426.4Z" fill="#FF9F8C"/>
<path d="M685.3 434.5C688.5 432.2 691.6 429.5 694.2 426.4C694.2 426.4 699.5 436.1 699.5 443.4C699.5 452.4 692.3 463.9 683.2 471C684.8 466.3 686.9 458.5 687.2 449.5C687.3 443.6 686.5 438.8 685.3 434.5Z" fill="#FB8973"/>
<path d="M632.1 387.3L632.9 391.1C632.9 391.1 635.4 399.5 640.7 400.3C646 401 654.8 388.7 654.8 388.7C654.8 388.7 654.2 383.4 653.7 379.8C653.3 376.7 632.1 387.3 632.1 387.3Z" fill="#FB8973"/>
<path d="M653.6 346.2C653.6 346.2 638.1 354.4 623.9 354.8C624.6 359.4 620.2 371 625.5 381.8C630.8 392.6 649.7 395.8 657.9 376.2C672.5 376.9 671.8 359.7 658 363.7C658 363.7 653 357.4 653.6 346.2Z" fill="#FF9F8C"/>
<path d="M189.4 281.7C189.4 281.7 174.3 289.3 160.1 304.6C146 319.8 135.3 336.8 133 374.6C130.7 412.4 152.8 452.1 152.8 452.1L154.6 492.1C154.6 492.1 175.9 518.4 231.1 509.1C286.3 499.7 293.5 479.5 293.5 479.5C293.5 479.5 291.9 460.6 291.8 455.2C298.2 442.5 307.6 414.2 299.1 373.2C295.7 357 290.9 340.5 286.2 326.5C278.7 303.7 259.6 286.8 236.1 282L189.4 281.7Z" fill="#573E88"/>
<path d="M188.8 282C205.1 288.4 207.1 315.6 207.5 354.1C207.5 354.1 180.6 324.8 174.5 311.2C165.1 310.4 153.7 324 151.3 333.7C148.9 343.4 126 362.8 164.1 350.5C198 339.5 189.2 399.7 213.5 417.5C231.5 430.7 268.7 410.8 269.6 424.8C270.4 437.5 209.1 454.5 206.5 459.2C198.8 473.2 202.9 495.7 210.9 511C170.6 511.9 154.6 492.1 154.6 492.1L152.8 452.1C152.8 452.1 130.7 412.4 133 374.6C135.3 336.8 146 319.8 160.1 304.6C172.6 291.1 185.9 283.5 188.8 282Z" fill="#482F7B"/>
<path d="M292.2 454.2C292 454.2 291.7 454.2 291.5 454.1C291.5 454.1 277.4 381.1 275.6 374.2C273.8 367.3 269.2 336.7 269 332.3C268.9 328.8 283.1 337.3 296.1 360.8C297.1 364.9 298.1 369 298.9 373.1C307.4 413.1 298.6 441 292.2 454.2Z" fill="#3E276C"/>
<path d="M214.4 309.6C214.4 309.6 224.1 327.2 226.7 330.8C233.9 334.2 241.2 327.6 241.2 327.6L241.7 308.4L225.2 298.1L214.4 309.6Z" fill="#E2D6FB"/>
<path d="M226.7 330.8L228.1 387.7L238.6 402L256.5 399L251.9 359.5L240.2 325.6L226.7 330.8Z" fill="#C7B9E3"/>
<path d="M249.1 399.7C249.1 399.7 217.6 334.5 214.9 328.4C219.6 315.6 228.7 301.2 249.3 324.5C245.4 306.8 235.5 295.9 225.8 295.8C216.1 295.7 196.4 313.7 196.4 313.7L237.8 401.8L249.1 399.7Z" fill="url(#paint2_linear_0_3)"/>
<path d="M187 283C187 283 176.9 302.1 179.4 322.1C180 327.3 202.7 344.3 202.7 344.3C202.7 344.3 205.3 368 208.1 377.3C210 383.7 241.1 403.8 241.1 403.8L195.2 309.2L189.3 281.7L187 283Z" fill="#3A2A5A"/>
<path d="M244 294.9C244 294.9 261.7 323.9 264.5 330.5C262.6 345.1 259 362.5 258.4 365.7C262 373.2 263 375.3 263 375.3C263 375.3 260.3 393.7 258.9 399.4C257.5 405.1 254 402.1 254 402.1L245.4 311.7L244 294.9Z" fill="#3A2A5A"/>
<path d="M155.2 318.5C155.2 318.5 171.1 321.8 177.4 342.4C183.3 361.5 187.5 399.9 187.5 399.9C187.5 399.9 195.8 398.8 200.6 399.4C205.4 400 259.9 395.2 268.7 393.8C281.7 400.9 281.5 423.8 277.1 427.8C277.1 427.8 245.6 440.2 217.1 445.9C188.6 451.6 156.6 455.2 149.3 451.9C142 448.6 132.7 426.9 132.4 394.6C132.2 362.2 132 322.3 155.2 318.5Z" fill="#503882"/>
<path d="M187.4 399.9C186.7 400.2 175.4 404.9 172.8 399.8C171 396.3 178.6 382.7 184 373.8C186.2 387.8 187.5 399.9 187.4 399.9Z" fill="#3E276C"/>
<path d="M219.4 445.3C218.6 445.5 217.8 445.6 217 445.8C188.5 451.5 156.5 455.1 149.2 451.8C141.9 448.5 132.6 426.8 132.3 394.5C132 362.2 131.9 322.2 155.1 318.4C155.1 318.4 156.5 318.7 158.6 319.6C154.7 326.4 147.4 344.1 151.4 375.2C156.7 416.4 167.7 433.9 191 438.9C204.4 441.8 213.8 444 219.4 445.3Z" fill="#472F78"/>
<path d="M268.5 393.7H268.6C281.6 400.8 281.4 423.7 277 427.7C277 427.7 276.5 427.9 275.6 428.3C272.1 427 268.6 422.6 264.9 412.4C260.1 399 266.2 394.8 268.5 393.7Z" fill="#231F2D"/>
<path d="M323.6 380.1L298.7 374.6L298.1 429.8C306.8 432.8 315.3 432.6 323.5 429.8V380.1H323.6Z" fill="#271613"/>
<path d="M263.8 399.1C263.8 399.1 276 393.1 293.6 385.3C306.2 376.8 331.3 387 332.1 403.8C332.9 420.6 311.9 418.2 300.7 413.4C289 417.6 271 424.1 271 424.1C271 424.1 260.7 412.8 263.8 399.1Z" fill="#FF9F8C"/>
<path d="M169.4 261.4C169.4 261.4 163.3 260.5 157 250.5C150.6 240.5 150.3 231.3 149.8 226.1C149.8 226.1 160.3 217.7 164 199.4C167.7 181.1 178.4 158.3 219.6 157.5C257.2 156.8 261.1 183.2 261.1 183.2C261.1 183.2 289 188.7 265.6 233.1C242.1 277.5 169.4 261.4 169.4 261.4Z" fill="#53469C"/>
<path d="M224.1 304.5C224.1 304.5 236.8 302.3 246.3 317.9C246.3 317.9 253.2 298.6 237.7 285.6L222.6 297.1L224.1 304.5Z" fill="#6F4BB9"/>
<path d="M191.4 280.4C191.4 280.4 188.6 270.8 187.7 267.1C156.9 272.5 164.7 241.4 177 240.6C189.4 239.8 190.3 256.7 195.3 237.7C200.3 218.7 200.1 219.9 200.1 219.9C200.1 219.9 227.2 211.8 235.8 206C244.4 200.2 251.3 197.1 251.3 197.1C251.3 197.1 262.6 209.5 265.1 216.7C267.5 224 272.4 254.5 260.9 270.2C249.4 285.8 234.9 287.7 234.9 287.7L223.6 304.6L191.4 280.4Z" fill="#FF9F8C"/>
<path d="M210.9 295.1C210.2 290 210.5 285.6 210.5 285.6C224.8 290 234.8 287.6 234.8 287.6L223.5 304.5L210.9 295.1Z" fill="#E7755E"/>
<path fill-rule="evenodd" clip-rule="evenodd" d="M251.2 197C251.2 197 246.6 199.1 240.3 203C251.59 196.833 260.179 208.218 261.201 209.573C261.257 209.646 261.29 209.69 261.3 209.7C257.1 203.4 251.2 197 251.2 197ZM225.2 211.2C213 217.9 199.6 225.3 198.1 227.1C198.062 227.138 198.038 227.176 198.018 227.209C197.985 227.262 197.962 227.3 197.9 227.3C200.1 219.2 200 219.8 200 219.8C200 219.8 214.2 215.7 225.2 211.2ZM179.6 240.7C183.175 241.234 185.601 243.271 187.463 244.833C190.132 247.073 191.638 248.338 193.7 242.8C193 245.6 192.3 248.1 191.5 250C190.035 253.502 187.841 250.598 185.02 246.864C183.411 244.734 181.598 242.334 179.6 240.7Z" fill="#E7755E"/>
<path d="M190.8 278.3L224.1 304.6C224.1 304.6 211.8 308.6 210 328.5C209.9 328.4 174.5 300.5 190.8 278.3Z" fill="#6F4BB9"/>
<path d="M288 321.2C288.2 321.1 426.5 277.3 426.5 277.3L427.3 435C427.3 435 286.1 373.2 286 373.1C282.6 366.1 280.7 357.9 280.7 349.1C280.6 338.6 283.4 328.9 288 321.2Z" fill="url(#paint3_linear_0_3)"/>
<path d="M440.9 437C474.534 437 501.8 400.735 501.8 356C501.8 311.265 474.534 275 440.9 275C407.266 275 380 311.265 380 356C380 400.735 407.266 437 440.9 437Z" fill="#E7755E"/>
<path d="M386.8 318.7C388.7 318.6 390.7 318.5 392.7 318.5C426.3 318.5 453.6 335 453.6 355.3C453.6 375.6 426.3 392.1 392.7 392.1C390.5 392.1 388.4 392 386.3 391.9C382.3 381.1 380 368.9 380 356C380 342.6 382.4 329.9 386.8 318.7Z" fill="#AF4C39"/>
<path d="M463.5 431.3C456.5 435 448.9 437.1 440.9 437.1C407.3 437.1 380 400.8 380 356.1C380 311.4 407.3 275.1 440.9 275.1C447.6 275.1 454.1 276.6 460.1 279.2C443.6 296.7 433.1 323.5 433.1 353.5C433.1 385.6 445.1 413.9 463.5 431.3Z" fill="url(#paint4_linear_0_3)"/>
<path fill-rule="evenodd" clip-rule="evenodd" d="M472.8 285.1C463.8 278 452.6 273.6 441.1 273.5H440.7C419.9 273.7 402 287.7 391.6 305.3C368.4 344.6 375.5 404.9 412.6 429.8C425.6 438.5 442.5 441 457 435.9C487.9 425 503.2 389.7 503.4 356.6C503.5 329.5 493.6 301.4 472.8 285.1ZM410.9 287.5C419.4 280.8 430 276.7 440.7 276.6H440.9C451.7 276.7 462.2 280.8 470.7 287.5C490.7 303.3 500.4 330.7 500.1 357.1C499.8 387.2 486.8 418.2 461 430.7C438 441.9 413.2 430.8 399.5 413C387.3 397.1 381.7 377 381.5 357.1C381.3 330.7 390.7 303.4 410.9 287.5Z" fill="#FFC4C4"/>
<path d="M520.1 285.6L507.6 298L494.2 293.5L458.7 312.3L465.4 319.9L490.4 306.1L506.2 312.9L524.9 295.5L520.1 285.6Z" fill="#E6D77C"/>
<path d="M294.7 156.1L304.3 157.6L309.3 142.8L321.9 145.5L331.8 120.3L322.7 117.5L316.5 134.1L302.3 134.2L294.7 156.1Z" fill="#EA6C6C"/>
<path d="M540 358.9L513 357.3L507.9 348.8H471L471.2 357.2L499.4 360.6L503.4 368.3L540.7 370.2L540 358.9Z" fill="#E6D77C"/>
<path d="M519.6 428.5L499.3 417.7L499.9 405.8L460.8 386.1L455 392.5L489.3 413.2L488.4 424.9L514.6 439.9L519.6 428.5Z" fill="#E6D77C"/>
<path d="M349.3 213.3L347.4 189.9L366.5 200.9L349.3 213.3Z" fill="#F76868"/>
<path d="M123.5 178L105.3 164.3L125.6 157.6L123.5 178Z" fill="#F76868"/>
<path d="M227.6 117.5L225.9 96L243.4 106.1L227.6 117.5Z" fill="#F76868"/>
<path d="M77.2 252.3L95.9 242.2L110.3 248.9L124.9 239.8L133.4 248.3L111.5 263.4L96 254.6L77.9 265L77.2 252.3Z" fill="#D95454"/>
<defs>
<linearGradient id="paint0_linear_0_3" x1="-127.939" y1="337.89" x2="118.545" y2="927.213" gradientUnits="userSpaceOnUse">
<stop stop-color="#B35464" stop-opacity="0.24"/>
<stop offset="1" stop-color="#781D83" stop-opacity="0.24"/>
</linearGradient>
<linearGradient id="paint1_linear_0_3" x1="10.009" y1="755.211" x2="639.437" y2="755.211" gradientUnits="userSpaceOnUse">
<stop stop-color="#B35464"/>
<stop offset="1" stop-color="#781D83"/>
</linearGradient>
<linearGradient id="paint2_linear_0_3" x1="204.371" y1="339.983" x2="253.16" y2="368.215" gradientUnits="userSpaceOnUse">
<stop stop-color="#200D47" stop-opacity="0.33"/>
<stop offset="1" stop-color="#5E3E9E" stop-opacity="0.33"/>
</linearGradient>
<linearGradient id="paint3_linear_0_3" x1="301.48" y1="434.807" x2="419.193" y2="422.911" gradientUnits="userSpaceOnUse">
<stop stop-color="#E7755E"/>
<stop offset="1" stop-color="#FFAF9F"/>
</linearGradient>
<linearGradient id="paint4_linear_0_3" x1="415.123" y1="269.882" x2="345.851" y2="343.813" gradientUnits="userSpaceOnUse">
<stop stop-color="#853A2A" stop-opacity="0.29"/>
<stop offset="1" stop-color="#4F160A" stop-opacity="0.29"/>
</linearGradient>
</defs>
</svg>
